<?xml version="1.0" encoding="utf-8"?>
<!-- Generator: Adobe Illustrator 21.0.2, SVG Export Plug-In . SVG Version: 6.00 Build 0)  -->
<svg version="1.1" id="Layer_1" xmlns="http://www.w3.org/2000/svg" xmlns:xlink="http://www.w3.org/1999/xlink" x="0px" y="0px"
	 viewBox="0 0 1280 1024" style="enable-background:new 0 0 1280 1024;" xml:space="preserve">
<style type="text/css">
	.st0{fill:#F5FDE9;}
	.st1{fill:#68B72D;}
	.st2{fill:#D2F0BB;}
	.st3{fill:#8DB869;}
	.st4{fill:#D0EAB6;}
	.st5{fill:#ECB8B3;}
	.st6{fill:#F6FCEE;}
	.st7{fill:#FDFDFD;}
	.st8{fill:#F5F9ED;}
	.st9{fill:#B73B35;}
	.st10{fill:#B03430;}
	.st11{fill:#67B72C;}
	.st12{fill:#B9403B;}
	.st13{fill:#D8241B;}
	.st14{fill:#71AB45;}
</style>
<g>
	<path class="st0" d="M668.6,547.1c6.4,0.1,12.9,0.2,19.3,2"/>
	<path class="st0" d="M571.2,547"/>
	<path class="st0" d="M701,566c0,4.3,0,8.7,0,13c-0.7,0-1.3,0-2,0c-1.9-1.9-1.3-4.3-1.5-6.6c-0.5-8.3-3.7-15-11.1-19.4
		c-3.6-2.1-7.6-2.4-11.6-2.4c-34.5-0.1-68.9-0.1-103.4-0.1c-1.9,0-3.6,0.2-5.4,0.9c-1.7,0.7-3.5,1.1-5.1-0.4"/>
	<path class="st1" d="M627.2,531.1c-17.8,0-35.7,0-53.5,0c-12.4,0-19.7-7.2-19.7-19.5c-0.1-34.5-0.1-69,0.1-103.5
		c0-12.9,7-19.9,19.8-19.9c35.2-0.1,70.3,0,105.5-0.1c8.8,0,15.6,3.1,19.1,11.6c1.2,3,1.4,6.1,1.4,9.3c0,34-0.2,68,0.1,102
		c0.1,10.6-7.6,20.6-20.2,20.2C662.2,530.6,644.7,531,627.2,531.1C627.2,531,627.2,531,627.2,531.1z"/>
	<path class="st2" d="M678.9,696.5"/>
	<path class="st2" d="M696.9,684.5"/>
	<path class="st2" d="M698.8,605.4c-1.1,11.2,1.2,22.4-0.6,33.6c-1,5.9,1.2,12.1,0.8,18.3c-0.2,3.2-1.9,6.5,0,9.7"/>
	<path class="st2" d="M699,573.5c0,1.8,0,3.7,0,5.5"/>
	<path class="st2" d="M676.1,549.2"/>
	<path class="st3" d="M787.5,387.8c17.8,0,35.7,0,53.5,0c13.3,0,20.1,6.7,20.2,19.9c0.1,34.5,0.1,69,0,103.5
		c0,13.6-7.2,20.7-20.7,20.7c-35.2,0.1-70.3,0.1-105.5,0c-12,0-20.1-8.1-20.1-20.1c-0.1-34.5-0.1-69,0-103.5
		c0-13.5,7.2-20.5,20.6-20.5C752.9,387.8,770.2,387.8,787.5,387.8C787.5,387.8,787.5,387.8,787.5,387.8z"/>
	<path class="st4" d="M463.5,532c-17.5,0-35-0.3-52.5,0.1c-12.7,0.3-22.3-8-22.1-22.3c0.3-34.1-0.4-68.3,0.3-102.4
		c0.3-15.7,7.3-21.8,21.4-22.1c35-0.6,70-0.3,104.9-0.2c12.1,0,22.1,9.9,21.9,22c-0.7,34.6-0.2,69.3-0.3,103.9c0,13-8.1,21-21.1,21
		C498.5,532,481,532,463.5,532C463.5,532,463.5,532,463.5,532z"/>
	<path class="st5" d="M443,210.9c-2-2.4-5.1-2.1-7.7-3c-18.6-6.8-32.9-18.6-42.7-35.8c-0.9-1.6-2-3.1-1.6-5.1
		c2.2-0.3,2.6,1.7,3.4,2.9c2.2,3.6,4.7,7.1,7.1,10.5c2.6,4,6,7.2,9.9,10c1.7,1.3,3.1,3,4.9,4.1c21.6,14.8,45,19,70.2,11.1
		c9.6-3,18.3-7.9,25.9-14.5c13.9-11.7,22.5-26.5,26.1-44.3c2.8-13.6,1.4-26.8-3-39.8c-0.7-2-2.1-3.9-0.5-6.1
		c4.9,5.7,5.9,12.9,6.9,19.9c3.7,27-4.8,50.2-23.8,69.3c-12.5,12.5-28.2,19.6-45.8,21.9c-0.8,0.1-1.5,0.6-2.2,0.9c-0.7,0-1.3,0-2,0
		C459.5,215,451.1,214.2,443,210.9L443,210.9z"/>
	<path class="st6" d="M548.8,135c0.2-1.3,0.1-2.6,0.2-4c2.1,0.9,2,2.8,2,4.7c0,4.1,0.5,8.4-0.1,12.4"/>
	<path class="st7" d="M545,578.2c0.1,2.5,0,5,0,7.5c0.3,20.3-0.6,40.5,0.4,60.8c0.1,1.1-0.4,2.2-0.9,3.4c-0.5-4.7-1.7-9.3-1.6-14.2
		c0.2-12,0-23.9,0.1-35.9c0-3.8-0.1-7.6,0.8-11.4c0.7-3.1,0.4-6.4-2.8-8.4c0-1.3,0-2.7,0-4"/>
	<path class="st7" d="M542,249.5c0-2.3-0.2-4.6,1.1-6.7c0.6-0.9,1.2-1.7,2.3-1.3c1.2,0.5,1.7,1.6,1.2,2.8c-1.1,2.7-0.6,5.5-0.7,8.3
		c-0.1,1.6,0.3,3.9-1.9,3.8c-1.9-0.1-1.9-2.3-2-3.9C542,251.4,542,250.4,542,249.5z"/>
	<path class="st8" d="M443,210.9c8.3,0.6,16.5,2.7,25,2.1c-6,4.4-12.9,0.9-19.3,2.3C446.3,215.8,444.6,212.9,443,210.9z"/>
	<path class="st7" d="M545,123c-0.9-3.6-2.6-7.1-2-11c0.5-1.5,1-3.1,1.5-4.9C547.6,111.6,547.7,119.8,545,123z"/>
	<path class="st7" d="M471.1,218.2c-5.8,0.7-11.5,1.7-17.9-0.4C459.7,215.5,465.5,215.5,471.1,218.2z"/>
	<path class="st0" d="M553,557c-1,3.5-1.8,7-4,10"/>
	<path class="st0" d="M553,557"/>
	<path class="st0" d="M561,551"/>
	<path class="st7" d="M543.3,667.4c0.5,2.1,0.6,2.7,0.7,3.3c0.3,1.5,1.6,3.1-0.1,4.5c-0.3,0.3-1.1,0.4-1.3,0.2
		c-1.4-1.4,0.3-2.7,0.3-4.1C543,670.5,543.1,669.7,543.3,667.4z"/>
	<path class="st9" d="M534.9,101c1.2,5.5,3.7,10.6,4.6,16.2c5,29.9-3.2,55-26.5,74.8c-0.7,0.5-1.4,0.7-2.2,0.5
		c-1.7-1-1.1-2.5-0.3-3.4c2.9-3.2,4.7-7.4,8.9-9.2c1.6-0.7,2.6-2,3.4-3.5c3.4-6.9,7-13.6,10.1-20.6c1.9-4.3,3.2-8.7,2.9-13.5
		c-0.2-2.2,0.2-4.3,1.1-6.3c0.8-1.9,1.2-3.9,0.8-5.9c-2-10.6-3.6-21.4-8.8-30.9c-2.8-5-6.7-9.4-10.5-13.9
		c-10-11.7-22.5-19.6-37.3-23.5c-7.9-2.1-15.8-3.7-24.4-2.1c-9.2,1.7-18.4,2.6-26.5,7.8c-5.2,3.3-10.7,5.9-16.1,8.7
		c-3.5,0.2-5.3,3-7.7,5c-1.9,1.6-3,4.6-6.3,4c6-9.1,14.3-15.5,23.6-20.8C462.8,42.1,514.5,56.8,534.9,101z"/>
	<path class="st10" d="M399.9,85c3.2-1.9,5.3-4.9,8-7.4c1.5-1.4,2.8-2.9,5.1-2.6c1.3,2.5-0.8,3.7-2.2,4.9
		c-8.6,7.9-13.9,18.1-19,28.2c-2.4,4.7-2.6,10.3-3.3,15.5c-1.2,9.9-0.9,20.2,2.3,29.5c4.5,13.2,11.2,25.5,22.5,34.5
		c3,2.4,5.8,4.9,9,6.9c1.5,0.9,3,2.2,2.7,4.4c-1.7,1.4-3,0.3-4.4-0.6c-1.9-1.3-3.7-2.7-5.9-3.3c-1.8-0.7-2.7-2.4-4.1-3.6
		c-3.3-3.5-6.8-6.8-10.1-10.3c-4.3-4-6.1-9.7-9.7-14.1c-12.3-27.5-10.4-53.9,6.3-79.1C398,86.9,399,86,399.9,85z"/>
	<path class="st1" d="M626.3,224.8c17.8,0,35.7-0.1,53.5,0c12,0.1,19.1,6.9,19.2,18.8c0.1,35.2,0.1,70.3,0,105.5
		c0,10.5-7.5,18-17.9,18.1c-36.8,0.1-73.6,0.1-110.5,0c-10.1,0-17.3-7.4-17.4-18.5c-0.2-35.1-0.2-70.3,0-105.5
		c0.1-11.8,7.3-18.3,19-18.4C590.3,224.7,608.3,224.7,626.3,224.8C626.3,224.7,626.3,224.8,626.3,224.8z"/>
	<path class="st1" d="M536.9,620.9c0,17.2,0,34.3,0,51.5c0,12.7-7.4,20.3-20.1,20.3c-35.5,0.1-71,0.1-106.5,0
		c-11.4,0-19.1-7.8-19.1-19.2c-0.1-35,0-70-0.1-105c0-10.6,9.2-19.1,18.9-18.9c31.8,0.4,63.7,0.1,95.5,0.2c5.1,0,10.2-0.8,15.4,0.1
		c9.7,1.7,16,8.7,16,18.6C537,585.9,536.9,603.4,536.9,620.9z"/>
	<path class="st1" d="M623.9,551.9c17.7,0,35.3,0.3,53-0.1c12-0.3,19.4,8.2,19.3,19c-0.3,34.3-0.3,68.7,0,103
		c0.1,12.4-8.5,19.4-19.3,19.7c-31.2,0.6-62.3,0-93.4,0.3c-4.6,0-9.3-0.5-14-0.6c-11-0.2-18.3-7.4-18.4-18.6c-0.1-22.7,0-45.3,0-68
		c0-11.7-0.1-23.3,0-35c0.1-12.8,7.1-19.8,19.8-19.8C588.6,551.9,606.3,551.9,623.9,551.9C623.9,551.9,623.9,551.9,623.9,551.9z"/>
	<path class="st1" d="M787.7,529c-18.3,0-36.7-0.3-55,0.1c-7.2,0.2-15.9-7.2-15.9-16.1c0.3-35,0.4-70-0.1-104.9
		c-0.1-9.2,5.5-18,17.3-18c34.3-0.1,68.6-0.2,102.9,0.2c4.2,0,8.6,0.9,13,2.1c8.2,2.4,9.3,8.7,9.6,14.9c0.2,4,0.4,8.2,0.4,12.3
		c0,28.8,0,57.6-0.1,86.5c0,4.1-0.5,8.3-1.1,12.4c-0.8,5.2-8.3,10.5-14.6,10.6C825.4,529,806.6,529,787.7,529z"/>
	<path class="st1" d="M534.9,356.9c-2.4,0.4-2.2,3.1-3.7,4.4c-4.3,3.7-9,5.9-14.9,5.8c-35.3-0.2-70.6-0.1-105.9-0.1
		c-12.5,0-19.6-6.9-19.6-19.3c0-34.8,0-69.6,0-104.4c0-11.5,6.9-18.4,18.3-18.4c36-0.1,71.9-0.1,107.9,0c11.3,0,18.6,6.9,18.7,18.2
		c0.2,35.5,0.1,70.9,0.1,106.4C535.8,352,535.3,354.5,534.9,356.9C534.9,356.9,534.9,356.9,534.9,356.9z"/>
	<path class="st11" d="M463.5,388c17.7,0,35.3-0.1,53,0c11.9,0.1,19.2,6.8,19.3,18.8c0.2,34.2,0.1,68.3,0,102.5
		c0,6.9-1.1,13.6-8.1,17.7c-3.6,2.2-7.4,2.9-11.4,2.9c-34.8,0.1-69.6-0.1-104.5,0.1c-14.6,0.1-21.1-8.4-21-21.2
		c0.4-33.8,0.1-67.6,0.1-101.5c0-12.4,6.7-19.2,19.1-19.3C427.8,387.9,445.7,388,463.5,388C463.5,388,463.5,388,463.5,388z"/>
	<path class="st1" d="M555.1,71.3c5.5-7.2,12.7-9.5,21.8-9.4c33.3,0.4,66.6,0.1,99.9,0.1c15.4,0,21.9,6.4,22,21.7
		c0,32.6-0.1,65.3,0.1,97.9c0,6.4-1.1,12.2-5.1,17.3c-5.5,4.5-12,5.1-18.8,5c-33.1-0.1-66.2,0-99.3,0c-4,0-8.1,0.1-11.7-1.8
		c-6.4-3.4-10.3-8.3-10.2-16.2c0.2-34.1,0.1-68.2,0.1-102.3C553.9,79.5,553.9,75.3,555.1,71.3z"/>
	<path class="st12" d="M414.9,195.1c4.1-0.6,6,4.4,10.1,3.9c1.7-1.5,3.4-0.8,5.1,0c9,4.6,18.4,6.8,28.6,6.7
		c10.5-0.1,21-0.3,30.7-4.4c5.3-2.2,10.9-3.9,15.6-7.5c1.8-1.4,3.8-2,6-1.9c0.7,0,1.4,0,2.1,0c-10.9,10.1-24.1,15.7-38.6,17.9
		C452.7,213.2,432.7,208.2,414.9,195.1z"/>
	<path class="st12" d="M400.7,181.1c4.1,2.7,7.6,6,10.1,10.3C406.7,188.7,403.4,185.3,400.7,181.1z"/>
	<path class="st13" d="M510.9,192c-5.5,4.5-12.2,7.4-18.6,10c-5.6,2.3-11.8,4.7-18.2,4.9c-7.6,0.3-15.3,0-23,0.1
		c-7.5,0-14.1-3.2-20.8-6.1c-1.8-0.8-3.2-2.4-5.4-1.9c-1.1-1.9-2.8-3.2-4.6-4.4c-7.2-4.6-12.6-10.9-18.3-17.3
		c-5.9-6.6-7.8-14.8-12-22c-2.5-4.2-2.5-10.1-3-15.2c-0.9-9.6,0.4-19.1,2-28.6c0.9-5.1,4.6-8.7,6.6-13.2c3-6.7,7.5-12.4,12.7-17.6
		c1.7-1.7,4.1-3,4.7-5.6c7.9-4.3,15.8-8.8,23.9-12.7c3.9-1.9,8.1-3.5,12.6-3.3c2.7,0.1,5.2-0.3,7.9-0.8c5.1-0.9,9.9-1.3,15.4,0.3
		c5.3,1.5,11.1,2.2,16.2,4.6c5.6,2.6,11.1,5.1,16.3,8.6c5.7,3.8,10.1,8.7,14.5,13.5c9.6,10.5,16.5,22.7,17.2,37.5
		c0.2,3.5,2.7,6.6,1.9,10.5c-2.3,12.3-3.7,24.9-10.9,35.8c-1.3,2-2,4.5-3.3,6.5c-1.6,2.4-2.6,4.7-5.9,6.3
		C515.5,183.4,511.9,187.3,510.9,192z"/>
	<path class="st14" d="M860.8,71.1c1.3,5.2,1.1,10.6,1.1,15.9c0,31.8,0,63.6,0,95.5c0,13.2-7.1,20.4-20.3,20.5
		c-35.1,0.1-70.3,0.1-105.4,0c-13,0-20-7-20.1-20.1c-0.1-34.3-0.1-68.6,0-102.9c0-12.7,7.2-19.9,19.8-19.9
		c34.8,0,69.6,0.1,104.4-0.1C849.5,59.9,856.5,62.8,860.8,71.1C860.9,71.1,860.8,71.1,860.8,71.1z"/>
	<path class="st1" d="M786.1,63c20.9,0,37.8,0,54.6,0c7.1,0,10.7,3.5,14.4,9.2c4.3,6.5,3.8,13.1,3.8,20c0,28,0,56,0,84
		c0,3.3,0,6.6-0.8,9.8c-1.7,7.3-9.4,13-17.2,13c-33.5,0-67-0.1-100.5,0.1c-4.6,0-8.6-2.1-13.1-2.3c-2.1-0.1-8.4-10.2-8.4-12.4
		c0-33.6,0-67.2,0-100.8c0-4.9,1.7-9.3,4-13.5c1.1-2,3.1-2.5,5.3-3.4C748.6,58.3,769.7,66,786.1,63z"/>
</g>
</svg>
